<svg width="306" height="306" viewBox="0 0 306 306" fill="none" xmlns="http://www.w3.org/2000/svg">
<path d="M209.533 192.525H96.2599C91.7124 192.525 88.0228 188.83 88.0228 184.275V44.014C88.0228 39.4559 91.7124 35.7637 96.2599 35.7637H209.533C214.08 35.7637 217.77 39.4559 217.77 44.014V184.275C217.77 188.83 214.08 192.525 209.533 192.525Z" fill="black"/>
<path d="M209.533 194.589H96.2598C90.5834 194.589 85.9642 189.962 85.9642 184.275V44.014C85.9642 38.327 90.5834 33.6998 96.2598 33.6998H209.533C215.209 33.6998 219.829 38.327 219.829 44.014V184.275C219.829 189.962 215.209 194.589 209.533 194.589ZM96.2598 37.825C92.8519 37.825 90.0814 40.6008 90.0814 44.014V184.275C90.0814 187.688 92.8519 190.464 96.2598 190.464H209.533C212.941 190.464 215.711 187.688 215.711 184.275V44.014C215.711 40.6008 212.941 37.825 209.533 37.825H96.2598Z" fill="#00FFFC"/>
<path d="M204.383 182.213H101.41C100.271 182.213 99.3491 181.289 99.3491 180.15V49.1698C99.3491 48.0303 100.271 47.1086 101.41 47.1086H204.383C205.522 47.1086 206.444 48.0303 206.444 49.1698V180.15C206.444 181.289 205.522 182.213 204.383 182.213Z" fill="black"/>
<path d="M204.382 184.275H101.41C99.1366 184.275 97.2905 182.426 97.2905 180.15V49.1698C97.2905 46.8961 99.1366 45.0447 101.41 45.0447H204.382C206.656 45.0447 208.502 46.8961 208.502 49.1698V180.15C208.502 182.426 206.656 184.275 204.382 184.275ZM101.41 49.1698V180.15H204.382V49.1698H101.408H101.41Z" fill="#00FFFC"/>
<path d="M183.789 26.4801H168.342C168.342 17.9403 161.423 11.0101 152.896 11.0101C144.37 11.0101 137.45 17.9403 137.45 26.4801H122.004C118.591 26.4801 115.826 29.2506 115.826 32.6692V57.4201H189.967V32.6692C189.967 29.2506 187.202 26.4801 183.789 26.4801Z" fill="black"/>
<path d="M192.026 59.4841H113.767V32.6692C113.767 28.1191 117.462 24.4189 122.004 24.4189H135.511C136.534 15.7197 143.94 8.94891 152.896 8.94891C161.853 8.94891 169.259 15.7197 170.282 24.4189H183.789C188.331 24.4189 192.026 28.1191 192.026 32.6692V59.4841ZM117.884 55.3589H187.908V32.6692C187.908 30.3928 186.06 28.5441 183.789 28.5441H166.284V26.4802C166.284 19.0878 160.278 13.0741 152.896 13.0741C145.515 13.0741 139.509 19.0878 139.509 26.4802V28.5441H122.004C119.733 28.5441 117.884 30.3928 117.884 32.6692V55.3589Z" fill="#00FFFC"/>
<path d="M158.302 26.7378C158.302 27.0938 158.267 27.4471 158.198 27.795C158.129 28.143 158.026 28.483 157.89 28.8097C157.755 29.1391 157.587 29.4525 157.391 29.7474C157.194 30.0422 156.971 30.3158 156.719 30.5682C156.469 30.8178 156.195 31.0436 155.901 31.2402C155.606 31.4394 155.292 31.6041 154.966 31.7422C154.636 31.8777 154.299 31.9786 153.951 32.0503C153.603 32.1194 153.252 32.1539 152.896 32.1539C152.54 32.1539 152.19 32.1194 151.842 32.0503C151.494 31.9786 151.157 31.8777 150.827 31.7422C150.5 31.6041 150.187 31.4394 149.892 31.2402C149.597 31.0436 149.324 30.8178 149.074 30.5682C148.822 30.3158 148.599 30.0422 148.402 29.7474C148.203 29.4525 148.038 29.1391 147.903 28.8097C147.767 28.483 147.664 28.143 147.595 27.795C147.525 27.4471 147.491 27.0938 147.491 26.7378C147.491 26.3846 147.525 26.0313 147.595 25.6833C147.664 25.3327 147.767 24.9953 147.903 24.666C148.038 24.3392 148.203 24.0258 148.402 23.731C148.599 23.4361 148.822 23.1625 149.074 22.9102C149.324 22.6578 149.597 22.4347 149.892 22.2355C150.187 22.0389 150.5 21.8716 150.827 21.7361C151.157 21.6007 151.494 21.4971 151.842 21.428C152.19 21.3589 152.54 21.3244 152.896 21.3244C153.252 21.3244 153.603 21.3589 153.951 21.428C154.299 21.4971 154.636 21.6007 154.966 21.7361C155.292 21.8716 155.606 22.0389 155.901 22.2355C156.195 22.4347 156.469 22.6578 156.719 22.9102C156.971 23.1625 157.194 23.4361 157.391 23.731C157.587 24.0258 157.755 24.3392 157.89 24.666C158.026 24.9953 158.129 25.3327 158.198 25.6833C158.267 26.0313 158.302 26.3846 158.302 26.7378Z" fill="black"/>
<path d="M152.896 34.2152C148.779 34.2152 145.43 30.863 145.43 26.7378C145.43 22.6153 148.779 19.2605 152.896 19.2605C157.014 19.2605 160.363 22.6153 160.363 26.7378C160.363 30.863 157.014 34.2152 152.896 34.2152ZM152.896 23.3857C151.05 23.3857 149.55 24.8917 149.55 26.7378C149.55 28.5866 151.05 30.09 152.896 30.09C154.743 30.09 156.243 28.5866 156.243 26.7378C156.243 24.8917 154.743 23.3857 152.896 23.3857Z" fill="#00FFFC"/>
<path d="M113.767 85.2656H179.669V89.3934H113.767V85.2656Z" fill="#00FFFC"/>
<path d="M113.767 98.6744H164.223V102.8H113.767V98.6744Z" fill="#00FFFC"/>
<path d="M113.767 112.08H179.669V116.206H113.767V112.08Z" fill="#00FFFC"/>
<path d="M113.767 125.489H164.223V129.614H113.767V125.489Z" fill="#00FFFC"/>
<path d="M113.767 138.895H179.669V143.02H113.767V138.895Z" fill="#00FFFC"/>
<path d="M17.4949 227.325C16.3953 227.325 15.4921 227.617 14.7856 228.196C14.0843 228.778 13.7337 229.617 13.7337 230.714C13.7337 231.814 14.0578 232.699 14.7112 233.371C15.362 234.037 16.212 234.55 17.2612 234.911C18.3078 235.272 19.4739 235.618 20.7568 235.942C22.0451 236.269 23.3228 236.664 24.5924 237.132C25.8595 237.594 27.0176 238.168 28.0668 238.853C29.1134 239.533 29.9634 240.5 30.6168 241.754C31.2676 243.007 31.5943 244.511 31.5943 246.259C31.5943 249.313 30.3512 251.93 27.8649 254.111C25.3787 256.286 22.1009 257.372 18.0368 257.372C13.9701 257.372 10.6949 256.395 8.2087 254.44C5.72245 252.485 4.47932 249.706 4.47932 246.099H13.8399C14.079 248.984 15.5559 250.424 18.2706 250.424C19.5376 250.424 20.5284 250.092 21.2456 249.425C21.9681 248.753 22.3293 247.903 22.3293 246.875C22.3293 245.85 22.0026 245.01 21.3518 244.357C20.6984 243.706 19.8484 243.193 18.8018 242.816C17.7606 242.434 16.5945 242.08 15.3062 241.754C14.0153 241.43 12.7376 241.026 11.4706 240.542C10.2009 240.062 9.04276 239.488 7.9962 238.821C6.95495 238.157 6.10761 237.196 5.45682 235.942C4.80339 234.688 4.47932 233.206 4.47932 231.49C4.47932 228.127 5.72776 225.434 8.22995 223.415C10.7374 221.391 13.9356 220.376 17.8243 220.376C21.7184 220.376 24.8687 221.263 27.2699 223.032C29.6712 224.796 30.9249 227.58 31.0312 231.384H21.4581C21.3146 230.082 20.8949 229.078 20.1937 228.377C19.4924 227.676 18.592 227.325 17.4949 227.325Z" fill="#00FFFC"/>
<path d="M49.8528 249.552H52.9871V257.011H48.514C45.2893 257.011 42.7924 256.299 41.0234 254.876C39.2596 253.452 38.3778 251.008 38.3778 247.544V235.602H35.7003V228.302H38.3778V221.301H47.1753V228.302H52.9446V235.602H47.1753V247.544C47.1753 248.883 48.0678 249.552 49.8528 249.552Z" fill="#00FFFC"/>
<path d="M75.3644 248.012C76.5331 246.774 77.1175 244.989 77.1175 242.657C77.1175 240.319 76.5145 238.545 75.3113 237.334C74.1133 236.117 72.6895 235.506 71.04 235.506C69.3958 235.506 67.9827 236.117 66.8006 237.334C65.616 238.545 65.0263 240.319 65.0263 242.657C65.0263 244.989 65.6345 246.774 66.8538 248.012C68.0703 249.244 69.502 249.861 71.1463 249.861C72.7958 249.861 74.201 249.244 75.3644 248.012ZM60.4256 253.314C57.5277 250.602 56.08 247.032 56.08 242.604C56.08 238.178 57.517 234.635 60.3938 231.979C63.2758 229.322 66.8431 227.994 71.0931 227.994C75.3485 227.994 78.9078 229.322 81.7713 231.979C84.64 234.635 86.0744 238.178 86.0744 242.604C86.0744 247.032 84.6506 250.602 81.8031 253.314C78.9556 256.02 75.4016 257.372 71.1463 257.372C66.8963 257.372 63.321 256.02 60.4256 253.314Z" fill="#00FFFC"/>
<path d="M92.7308 253.356C90.0746 250.679 88.7465 247.114 88.7465 242.657C88.7465 238.194 90.0746 234.635 92.7308 231.979C95.3871 229.322 98.8243 227.994 103.048 227.994C106.546 227.994 109.513 228.863 111.951 230.597C114.387 232.327 116 234.802 116.786 238.024H107.266C106.442 236.311 105.098 235.453 103.228 235.453C101.358 235.453 99.9665 236.117 99.0527 237.44C98.1443 238.757 97.6927 240.497 97.6927 242.657C97.6927 244.819 98.1443 246.561 99.0527 247.884C99.9665 249.202 101.297 249.861 103.048 249.861C104.145 249.861 105.003 249.675 105.619 249.297C106.235 248.915 106.782 248.246 107.266 247.289H116.786C116 250.378 114.369 252.833 111.898 254.652C109.425 256.467 106.474 257.372 103.048 257.372C98.8243 257.372 95.3871 256.034 92.7308 253.356Z" fill="#00FFFC"/>
<path d="M129.641 257.011H120.843V218.931H129.641V240.287L138.544 228.302H150.381L138.088 242.965L150.381 257.011H138.704L129.641 245.536V257.011Z" fill="#00FFFC"/>
<path d="M153.308 242.604V235.294H175.95V242.604H153.308Z" fill="#00FFFC"/>
<path d="M191.324 228.302V232.521C193.144 229.503 196.044 227.994 200.026 227.994C202.151 227.994 204.045 228.478 205.711 229.439C207.373 230.396 208.67 231.766 209.599 233.551C210.662 231.867 212.038 230.52 213.732 229.514C215.432 228.502 217.329 227.994 219.427 227.994C222.926 227.994 225.701 229.075 227.757 231.235C229.819 233.397 230.849 236.396 230.849 240.234V257.011H222.094V241.424C222.094 239.57 221.606 238.136 220.628 237.121C219.651 236.109 218.304 235.602 216.591 235.602C214.875 235.602 213.531 236.109 212.553 237.121C211.576 238.136 211.087 239.57 211.087 241.424V257.011H202.342V241.424C202.342 239.57 201.854 238.136 200.876 237.121C199.899 236.109 198.549 235.602 196.828 235.602C195.112 235.602 193.768 236.109 192.791 237.121C191.813 238.136 191.324 239.57 191.324 241.424V257.011H182.527V228.302H191.324Z" fill="#00FFFC"/>
<path d="M254.919 247.906C256.186 246.668 256.821 244.917 256.821 242.657C256.821 240.391 256.186 238.648 254.919 237.429C253.649 236.213 252.191 235.602 250.542 235.602C248.897 235.602 247.439 236.223 246.164 237.461C244.894 238.694 244.262 240.444 244.262 242.71C244.262 244.97 244.894 246.71 246.164 247.927C247.439 249.146 248.897 249.754 250.542 249.754C252.191 249.754 253.649 249.138 254.919 247.906ZM239.12 253.261C236.583 250.514 235.316 246.997 235.316 242.71C235.316 238.417 236.583 234.895 239.12 232.138C241.654 229.376 244.751 227.994 248.406 227.994C252.061 227.994 254.866 229.349 256.821 232.053V228.302H265.618V257.011H256.821V252.846C254.696 255.864 251.848 257.372 248.278 257.372C244.708 257.372 241.654 256.002 239.12 253.261Z" fill="#00FFFC"/>
<path d="M281.252 228.302V232.521C283.071 229.503 285.972 227.994 289.954 227.994C293.247 227.994 295.914 229.094 297.954 231.288C299.994 233.477 301.014 236.46 301.014 240.234V257.011H292.27V241.424C292.27 239.57 291.781 238.136 290.804 237.121C289.826 236.109 288.477 235.602 286.756 235.602C285.04 235.602 283.696 236.109 282.718 237.121C281.741 238.136 281.252 239.57 281.252 241.424V257.011H272.454V228.302H281.252Z" fill="#00FFFC"/>
</svg>
